#!OML:ASF H:\BreakDance\Project 1\Capture day 1\Session 1\Male.ASF
:FULLY-SPECIFIED
:DEGREES
1677
root -22.5259 6.61508 8.54672 209.582 -69.8567 118.564
lowerback 14.9731 -3.95427 1.29337
upperback 6.54058 -5.98072 9.94524
thorax -0.356004 -3.63468 10.8981
lowerneck 0.919909 -7.61706 -2.12022
upperneck -0.236513 -10.2858 -3.02761
head -0.276754 -5.16799 -0.520221
rclavicle -4.07509e-014 -2.19458e-013
rhumerus -64.2774 -35.9639 -20.7317
rradius 30.7725
rwrist -28.7076
rhand -18.019 -27.6376
rfingers 7.12502
rthumb 8.25201 -57.4565
lclavicle -4.07509e-014 -2.19458e-013
lhumerus 24.7131 11.8627 -18.0102
lradius 51.1757
lwrist 22.6424
lhand -43.991 -28.5519
lfingers 7.12502
lthumb -16.8125 0.740272
rfemur -66.7594 -2.9987 -12.5465
rtibia 51.4799
rfoot 18.1554 1.00492
rtoes 37.3366
lfemur 366.277 58.2507 425.885
ltibia 147.739
lfoot -45.9906 -67.1676
ltoes -8.15872
1678
root -22.5796 6.61269 8.47674 210.223 -71.3438 117.813
lowerback 14.784 -3.58549 1.76324
upperback 6.72914 -5.43738 10.0121
thorax -0.185813 -3.35108 10.592
lowerneck 0.532197 -7.1523 -1.7248
upperneck -0.105897 -9.68262 -4.58477
head -0.27273 -4.87987 -1.06951
rclavicle 2.06736e-014 6.99722e-014
rhumerus -67.6887 -36.9408 -17.1645
rradius 29.2262
rwrist -27.5947
rhand -15.6093 -26.8192
rfingers 7.12502
rthumb 10.577 -56.5331
lclavicle 2.06736e-014 6.99722e-014
lhumerus 20.1172 9.09259 -17.2857
lradius 50.692
lwrist 21.5143
lhand -44.5482 -28.7407
lfingers 7.12502
lthumb -17.3489 0.504979
rfemur -65.5049 -4.81145 -11.944
rtibia 52.7367
rfoot 20.2772 0.586083
rtoes 36.9502
lfemur 362.659 57.9062 424.322
ltibia 148.137
lfoot -44.1713 -67.9634
ltoes -8.95175
1679
root -22.6375 6.63295 8.41245 210.683 -72.5585 117.277
lowerback 14.6546 -3.24378 2.25742
upperback 6.81256 -4.91208 10.0975
thorax -0.149174 -3.06847 10.3099
lowerneck 0.432637 -6.54466 -1.60024
upperneck -0.00546325 -8.91505 -6.24998
head -0.301873 -4.51327 -1.61421
rclavicle 8.74653e-015 -4.45278e-014
rhumerus -71.1406 -37.7474 -12.9458
rradius 27.5187
rwrist -25.8288
rhand -12.9986 -26.3317
rfingers 7.12502
rthumb 13.0946 -55.9006
lclavicle 8.74653e-015 -4.45278e-014
lhumerus 15.6007 6.24156 -15.4151
lradius 49.9552
lwrist 20.6534
lhand -44.8973 -28.7688
lfingers 7.12502
lthumb -17.6848 0.446936
rfemur -64.502 -6.41538 -11.4222
rtibia 53.9078
rfoot 22.1958 0.167066
rtoes 36.1095
lfemur 358.046 57.6931 421.418
ltibia 148.343
lfoot -40.5075 -69.2167
ltoes -9.08002
1680
root -22.6987 6.67596 8.35346 210.89 -73.4792 117.035
lowerback 14.5476 -2.89631 2.83466
upperback 6.84257 -4.35469 10.1162
thorax -0.191693 -2.75888 9.90328
lowerneck 0.81618 -5.78136 -1.82909
upperneck -0.228265 -7.97828 -7.56307
head -0.462104 -4.04346 -1.98251
rclavicle -9.54166e-014 1.20861e-013
rhumerus -74.7527 -38.2675 -8.29851
rradius 25.8934
rwrist -23.7491
rhand -10.3739 -26.3558
rfingers 7.12502
rthumb 15.6235 -55.7449
lclavicle -9.54166e-014 1.20861e-013
lhumerus 11.1709 3.54054 -12.6345
lradius 48.9774
lwrist 20.2175
lhand -45.1365 -28.4019
lfingers 7.12502
lthumb -17.915 0.792913
rfemur -63.8023 -7.7774 -10.9881
rtibia 55.0056
rfoot 23.4082 -0.116905
rtoes 34.0905
lfemur 352.995 57.4923 417.62
ltibia 148.356
lfoot -35.438 -70.6251
ltoes -8.58193
1681
root -22.7607 6.74056 8.29915 211.255 -74.0564 116.671
lowerback 14.4286 -2.53201 3.3538
upperback 6.85169 -3.77065 10.0047
thorax -0.250694 -2.42826 9.37897
lowerneck 1.20386 -4.93361 -2.17789
upperneck -0.426105 -6.93946 -8.78886
head -0.595062 -3.51995 -2.31741
rclavicle 6.44062e-014 -9.54166e-015
rhumerus -78.3825 -38.4675 -3.52441
rradius 24.4743
rwrist -21.6427
rhand -8.11829 -27.0984
rfingers 7.12502
rthumb 17.795 -56.3042
lclavicle 6.44062e-014 -9.54166e-015
lhumerus 6.81079 1.18161 -9.18573
lradius 47.7012
lwrist 20.298
lhand -45.3264 -27.5665
lfingers 7.12502
lthumb -18.0977 1.61154
rfemur -63.4113 -8.94263 -10.7951
rtibia 56.0891
rfoot 23.5098 -0.0329956
rtoes 30.2954
lfemur 347.652 57.2338 412.705
ltibia 148.175
lfoot -29.5099 -71.6061
ltoes -7.91798
1682
root -22.8214 6.82317 8.24862 212.392 -74.2599 115.572
lowerback 14.2267 -2.10863 3.76327
upperback 6.90615 -3.11355 9.6169
thorax -0.228298 -2.04873 8.59023
lowerneck 1.29832 -4.09469 -2.30053
upperneck -0.508852 -5.88534 -9.99671
head -0.639297 -2.99663 -2.70718
rclavicle 1.11319e-014 7.95139e-014
rhumerus -82.0482 -38.3928 0.940034
rradius 23.3811
rwrist -19.9231
rhand -6.50716 -28.6583
rfingers 7.12502
rthumb 19.3448 -57.7161
lclavicle 1.11319e-014 7.95139e-014
lhumerus 2.75433 -0.637427 -5.41709
lradius 46.0784
lwrist 20.8562
lhand -45.3251 -26.322
lfingers 7.12502
lthumb -18.0964 2.85617
rfemur -63.3077 -10.0043 -11.0267
rtibia 57.2523
rfoot 22.4224 0.614965
rtoes 24.5557
lfemur 341.554 56.7372 405.841
ltibia 147.783
lfoot -22.3957 -71.7978
ltoes -7.0369
